<?xml version="1.0" encoding="UTF-8"?>
<svg version="1.1" xmlns="http://www.w3.org/2000/svg" width="758" height="758">
<path d="M0 0 C1.2718852 -0.00445784 2.54377039 -0.00891569 3.85419756 -0.01350862 C5.25819815 -0.01341933 6.66219874 -0.01322951 8.0661993 -0.01294994 C9.56354093 -0.01625135 11.06088167 -0.0199775 12.55822128 -0.02409142 C16.66974143 -0.0340879 20.78124698 -0.03782441 24.89277756 -0.04048073 C29.32855129 -0.04439073 33.76431354 -0.05396852 38.20007992 -0.0626936 C48.91037572 -0.08243748 59.62067244 -0.09252119 70.33098188 -0.10142139 C75.37752732 -0.10580734 80.42407172 -0.11117332 85.47061634 -0.11641026 C102.25095972 -0.13341981 119.03130246 -0.14791366 135.81165314 -0.155159 C140.16423767 -0.15706881 144.51682219 -0.15898916 148.8694067 -0.16094494 C149.95118743 -0.16142868 151.03296816 -0.16191242 152.14753013 -0.16241082 C169.66915226 -0.17071002 187.19070609 -0.19604632 204.7122984 -0.22852562 C222.71026 -0.26161541 240.70818691 -0.27960946 258.70617908 -0.28280324 C268.80779186 -0.28496646 278.90930501 -0.29368773 289.0108881 -0.31926441 C297.61418139 -0.34099755 306.21735084 -0.34900893 314.82066847 -0.33929763 C319.20711969 -0.33476063 323.59331555 -0.33660413 327.97973156 -0.35605907 C332.00252023 -0.37374652 336.0248683 -0.37264823 340.04766201 -0.35716178 C341.49589282 -0.35479415 342.94415458 -0.35906506 344.39233822 -0.37099043 C359.96800254 -0.491213 374.0575756 3.36915052 385.69924068 14.06000233 C395.21155135 24.36824103 399.98115188 37.07427236 399.82814693 50.94672108 C398.9649095 63.75402553 393.03604379 75.51273392 383.61330318 84.13422108 C374.37761563 91.13011614 364.15351503 96.21962665 352.43605709 96.15912342 C351.533522 96.15552814 350.6309869 96.15193287 349.70110226 96.14822865 C349.01212856 96.14360615 348.32315487 96.13898365 347.61330318 96.13422108 C347.61774441 96.84593464 347.62218563 97.5576482 347.62676144 98.29092884 C347.66727099 105.08415777 347.6975033 111.87736805 347.71692753 118.67068768 C347.72725021 122.16102707 347.7411911 125.65126454 347.76418209 129.1415453 C348.00240496 166.34464424 348.00240496 166.34464424 343.42580318 184.57172108 C343.20932125 185.44457752 342.99283932 186.31743397 342.76979733 187.21674061 C336.6916369 210.83388203 326.06658315 233.20368314 310.61330318 252.13422108 C310.13925045 252.72493397 309.66519772 253.31564686 309.17677975 253.92426014 C299.77395437 265.57572378 289.15436517 275.37057456 277.49220943 284.72406483 C274.08291594 287.57824947 270.84951602 290.58700972 267.61330318 293.63422108 C262.67813082 298.28085718 257.61854674 302.65348357 252.32424068 306.89203358 C249.32425596 309.37328896 246.46181533 311.98291362 243.61330318 314.63422108 C238.98836805 318.93731794 234.20817437 322.97241724 229.28517818 326.93500233 C225.71682163 329.87211452 222.3062691 332.96626408 218.90236568 336.09125233 C217.29386596 337.5268246 215.63128383 338.90294468 213.93361568 340.23187733 C209.75998777 343.65369011 208.49718347 347.69570006 207.67580318 352.88422108 C207.21214056 359.59724948 209.120697 365.09137071 213.38283443 370.29437733 C215.38489814 372.34382716 217.45497978 374.25066578 219.61330318 376.13422108 C220.20885006 376.67176014 220.80439693 377.2092992 221.41799068 377.76312733 C223.46007405 379.58172088 225.53278664 381.35966285 227.61330318 383.13422108 C229.90578413 385.09160286 232.19726714 387.05014836 234.48830318 389.00922108 C235.09666012 389.52879383 235.70501705 390.04836658 236.33180904 390.58368397 C239.86935737 393.6128251 243.35709687 396.68558662 246.80080318 399.82172108 C250.11413398 402.83236586 253.50272248 405.69987286 256.98830318 408.50922108 C261.54781765 412.19536376 265.86336264 416.06936006 270.14772701 420.06537342 C273.21957022 422.9123516 276.37302413 425.56142255 279.67580318 428.13422108 C316.86000099 458.26902683 341.85159034 501.78757717 347.15480709 549.55926991 C347.78007036 556.04300808 347.73807266 562.50864279 347.71095943 569.01703358 C347.70883701 570.96015934 347.70883701 570.96015934 347.70667171 572.94254017 C347.70289129 576.35205559 347.69310038 579.761527 347.68196774 583.17102528 C347.67165626 586.66395949 347.66715344 590.15690096 347.66213131 593.64984608 C347.65147313 600.47798892 347.63445193 607.30610287 347.61330318 614.13422108 C348.50850674 614.19584934 349.40371029 614.25747761 350.32604122 614.3209734 C351.49897732 614.40557316 352.67191341 614.49017292 353.88039303 614.57733631 C355.04372158 614.65958958 356.20705013 614.74184284 357.40563107 614.82658863 C369.49159184 615.98569515 380.22609386 623.25389244 388.42580318 631.88422108 C397.01286483 642.39098641 400.80153105 654.71095942 399.61330318 668.13422108 C397.00177339 682.72206328 389.60649838 694.15996265 377.73830318 703.00922108 C368.62831147 709.01643178 359.02327059 711.25314263 348.18443871 711.26564884 C346.30067485 711.27141056 346.30067485 711.27141056 344.37885517 711.27728868 C342.99813706 711.27650858 341.617419 711.27562982 340.23670101 711.27466297 C338.75983321 711.2772489 337.2829661 711.28026269 335.80609995 711.28366637 C331.75577546 711.291713 327.70546872 711.29352464 323.65513718 711.29426384 C319.28344031 711.29611849 314.91175257 711.30366791 310.540061 711.31039906 C300.9840564 711.32396653 291.428056 711.33000469 281.87204337 711.33440971 C275.90168179 711.33717495 269.93132183 711.34141283 263.96096134 711.34591389 C247.42077232 711.35810473 230.88058458 711.36840425 214.34039116 711.37178898 C213.28228644 711.37200854 212.22418171 711.37222811 211.13401321 711.37245433 C210.07342001 711.37267261 209.01282682 711.37289089 207.92009443 711.37311578 C205.77103706 711.37355924 203.62197969 711.3740058 201.47292233 711.37445545 C200.40692248 711.37467688 199.34092263 711.37489831 198.24261976 711.37512645 C180.97717775 711.37907282 163.71177799 711.39652278 146.4463523 711.41981497 C128.70712674 711.44355257 110.96792236 711.45599193 93.22868067 711.4571569 C83.27406485 711.45807233 73.31950407 711.46379138 63.36490345 711.48197651 C54.88684042 711.49741004 46.40884945 711.50247882 37.93077504 711.49423841 C33.60904402 711.49034334 29.28745797 711.49120531 24.96574497 711.50529575 C21.00098468 711.51810359 17.03647726 711.5167774 13.07171697 711.50470504 C11.64570834 711.50275988 10.21968136 711.50577117 8.79369842 711.5145494 C-5.11752183 711.59468893 -17.60691262 709.92314549 -29.38669682 702.13422108 C-30.0196265 701.71656483 -30.65255619 701.29890858 -31.30466557 700.86859608 C-39.47095292 694.66446014 -46.20614355 684.10246458 -48.38669682 674.13422108 C-48.56716557 673.34144764 -48.74763432 672.5486742 -48.93357182 671.73187733 C-51.1883017 658.80605512 -48.20648384 646.88544847 -41.32419682 635.88812733 C-32.83261333 623.81843709 -21.14507656 617.92903678 -7.05075932 614.76312733 C-3.72232603 614.19182908 -0.74896677 614.0865272 2.61330318 614.13422108 C2.60664135 613.42916935 2.59997952 612.72411762 2.59311581 611.99770069 C2.53221022 605.24958552 2.48693468 598.50151301 2.45786667 591.75319099 C2.44241862 588.28641011 2.42157961 584.8198621 2.38698483 581.35321522 C1.84519782 525.53712854 18.62033553 479.76354901 58.03566647 439.54413319 C63.75201585 433.76989129 69.54827439 428.3417697 75.93752193 423.30609608 C78.94358035 420.86614209 81.78317404 418.27283772 84.61330318 415.63422108 C89.20044502 411.36457694 93.94777463 407.37660037 98.83205318 403.44672108 C102.38515405 400.49245744 105.75353999 397.36508684 109.1350317 394.21796131 C112.34629369 391.24706479 115.63958134 388.43461031 119.05080318 385.69672108 C134.33230606 374.46177976 134.33230606 374.46177976 141.93361568 358.18890858 C142.19330476 351.14267837 141.59690329 346.48355281 136.79689693 341.09515858 C131.99384618 336.09448677 126.77234023 331.71433977 121.36720943 327.38422108 C118.70403869 325.20835391 116.15287871 322.95243899 113.61330318 320.63422108 C110.21731637 317.53866911 106.75158788 314.58270901 103.17580318 311.69672108 C98.3990181 307.8336389 93.87383437 303.75510673 89.35549068 299.59515858 C86.71314436 297.22382213 84.00636152 294.9816911 81.23830318 292.75922108 C75.80357455 288.37411815 70.71315535 283.67889321 65.61330318 278.91547108 C63.26313601 276.72354458 60.86892715 274.59769801 58.42580318 272.50922108 C25.99150976 244.12921433 6.55231738 203.07744089 2.81580257 160.30852222 C2.44187919 154.4470456 2.49192725 148.58737119 2.51564693 142.71625233 C2.51751721 141.36433941 2.51893822 140.01242581 2.51993465 138.66051197 C2.52371192 135.14086429 2.53349993 131.62125936 2.54463863 128.1016283 C2.5549571 124.4946599 2.5594544 120.88768443 2.56447506 117.28070545 C2.57512762 110.23186008 2.59214477 103.1830434 2.61330318 96.13422108 C1.48488506 96.14577732 1.48488506 96.14577732 0.33367062 96.15756702 C-0.65476841 96.16355915 -1.64320744 96.16955128 -2.66159916 96.17572498 C-3.64075291 96.18342915 -4.61990665 96.19113331 -5.62873173 96.19907093 C-14.91270008 95.98077085 -23.23389434 91.77471674 -30.38669682 86.13422108 C-31.07376713 85.6211742 -31.76083744 85.10812733 -32.46872807 84.57953358 C-42.1156117 76.86940478 -47.32732695 66.1291473 -49.38669682 54.13422108 C-50.42697193 40.17052814 -46.74120987 27.29926139 -37.76169682 16.44672108 C-27.81153186 5.86064332 -14.4396375 0.02355511 0 0 Z " fill="#F7825E" transform="translate(204.38669681549072,23.865778923034668)"/>
<path d="M0 0 C1.2718852 -0.00445784 2.54377039 -0.00891569 3.85419756 -0.01350862 C5.25819815 -0.01341933 6.66219874 -0.01322951 8.0661993 -0.01294994 C9.56354093 -0.01625135 11.06088167 -0.0199775 12.55822128 -0.02409142 C16.66974143 -0.0340879 20.78124698 -0.03782441 24.89277756 -0.04048073 C29.32855129 -0.04439073 33.76431354 -0.05396852 38.20007992 -0.0626936 C48.91037572 -0.08243748 59.62067244 -0.09252119 70.33098188 -0.10142139 C75.37752732 -0.10580734 80.42407172 -0.11117332 85.47061634 -0.11641026 C102.25095972 -0.13341981 119.03130246 -0.14791366 135.81165314 -0.155159 C140.16423767 -0.15706881 144.51682219 -0.15898916 148.8694067 -0.16094494 C149.95118743 -0.16142868 151.03296816 -0.16191242 152.14753013 -0.16241082 C169.66915226 -0.17071002 187.19070609 -0.19604632 204.7122984 -0.22852562 C222.71026 -0.26161541 240.70818691 -0.27960946 258.70617908 -0.28280324 C268.80779186 -0.28496646 278.90930501 -0.29368773 289.0108881 -0.31926441 C297.61418139 -0.34099755 306.21735084 -0.34900893 314.82066847 -0.33929763 C319.20711969 -0.33476063 323.59331555 -0.33660413 327.97973156 -0.35605907 C332.00252023 -0.37374652 336.0248683 -0.37264823 340.04766201 -0.35716178 C341.49589282 -0.35479415 342.94415458 -0.35906506 344.39233822 -0.37099043 C359.96800254 -0.491213 374.0575756 3.36915052 385.69924068 14.06000233 C395.21155135 24.36824103 399.98115188 37.07427236 399.82814693 50.94672108 C398.9649095 63.75402553 393.03604379 75.51273392 383.61330318 84.13422108 C374.37761563 91.13011614 364.15351503 96.21962665 352.43605709 96.15912342 C351.533522 96.15552814 350.6309869 96.15193287 349.70110226 96.14822865 C349.01212856 96.14360615 348.32315487 96.13898365 347.61330318 96.13422108 C347.61774441 96.84593464 347.62218563 97.5576482 347.62676144 98.29092884 C347.66727099 105.08415777 347.6975033 111.87736805 347.71692753 118.67068768 C347.72725021 122.16102707 347.7411911 125.65126454 347.76418209 129.1415453 C348.00240496 166.34464424 348.00240496 166.34464424 343.42580318 184.57172108 C343.20932125 185.44457752 342.99283932 186.31743397 342.76979733 187.21674061 C336.6916369 210.83388203 326.06658315 233.20368314 310.61330318 252.13422108 C310.13925045 252.72493397 309.66519772 253.31564686 309.17677975 253.92426014 C299.77395437 265.57572378 289.15436517 275.37057456 277.49220943 284.72406483 C274.08291594 287.57824947 270.84951602 290.58700972 267.61330318 293.63422108 C262.67813082 298.28085718 257.61854674 302.65348357 252.32424068 306.89203358 C249.32425596 309.37328896 246.46181533 311.98291362 243.61330318 314.63422108 C238.98836805 318.93731794 234.20817437 322.97241724 229.28517818 326.93500233 C225.71682163 329.87211452 222.3062691 332.96626408 218.90236568 336.09125233 C217.29386596 337.5268246 215.63128383 338.90294468 213.93361568 340.23187733 C209.75998777 343.65369011 208.49718347 347.69570006 207.67580318 352.88422108 C207.21214056 359.59724948 209.120697 365.09137071 213.38283443 370.29437733 C215.38489814 372.34382716 217.45497978 374.25066578 219.61330318 376.13422108 C220.20885006 376.67176014 220.80439693 377.2092992 221.41799068 377.76312733 C223.46007405 379.58172088 225.53278664 381.35966285 227.61330318 383.13422108 C229.90578413 385.09160286 232.19726714 387.05014836 234.48830318 389.00922108 C235.09666012 389.52879383 235.70501705 390.04836658 236.33180904 390.58368397 C239.86935737 393.6128251 243.35709687 396.68558662 246.80080318 399.82172108 C250.11413398 402.83236586 253.50272248 405.69987286 256.98830318 408.50922108 C261.54781765 412.19536376 265.86336264 416.06936006 270.14772701 420.06537342 C273.21957022 422.9123516 276.37302413 425.56142255 279.67580318 428.13422108 C316.86000099 458.26902683 341.85159034 501.78757717 347.15480709 549.55926991 C347.78007036 556.04300808 347.73807266 562.50864279 347.71095943 569.01703358 C347.70883701 570.96015934 347.70883701 570.96015934 347.70667171 572.94254017 C347.70289129 576.35205559 347.69310038 579.761527 347.68196774 583.17102528 C347.67165626 586.66395949 347.66715344 590.15690096 347.66213131 593.64984608 C347.65147313 600.47798892 347.63445193 607.30610287 347.61330318 614.13422108 C348.50850674 614.19584934 349.40371029 614.25747761 350.32604122 614.3209734 C351.49897732 614.40557316 352.67191341 614.49017292 353.88039303 614.57733631 C355.04372158 614.65958958 356.20705013 614.74184284 357.40563107 614.82658863 C369.49159184 615.98569515 380.22609386 623.25389244 388.42580318 631.88422108 C397.01286483 642.39098641 400.80153105 654.71095942 399.61330318 668.13422108 C397.00177339 682.72206328 389.60649838 694.15996265 377.73830318 703.00922108 C368.62831147 709.01643178 359.02327059 711.25314263 348.18443871 711.26564884 C346.30067485 711.27141056 346.30067485 711.27141056 344.37885517 711.27728868 C342.99813706 711.27650858 341.617419 711.27562982 340.23670101 711.27466297 C338.75983321 711.2772489 337.2829661 711.28026269 335.80609995 711.28366637 C331.75577546 711.291713 327.70546872 711.29352464 323.65513718 711.29426384 C319.28344031 711.29611849 314.91175257 711.30366791 310.540061 711.31039906 C300.9840564 711.32396653 291.428056 711.33000469 281.87204337 711.33440971 C275.90168179 711.33717495 269.93132183 711.34141283 263.96096134 711.34591389 C247.42077232 711.35810473 230.88058458 711.36840425 214.34039116 711.37178898 C213.28228644 711.37200854 212.22418171 711.37222811 211.13401321 711.37245433 C210.07342001 711.37267261 209.01282682 711.37289089 207.92009443 711.37311578 C205.77103706 711.37355924 203.62197969 711.3740058 201.47292233 711.37445545 C200.40692248 711.37467688 199.34092263 711.37489831 198.24261976 711.37512645 C180.97717775 711.37907282 163.71177799 711.39652278 146.4463523 711.41981497 C128.70712674 711.44355257 110.96792236 711.45599193 93.22868067 711.4571569 C83.27406485 711.45807233 73.31950407 711.46379138 63.36490345 711.48197651 C54.88684042 711.49741004 46.40884945 711.50247882 37.93077504 711.49423841 C33.60904402 711.49034334 29.28745797 711.49120531 24.96574497 711.50529575 C21.00098468 711.51810359 17.03647726 711.5167774 13.07171697 711.50470504 C11.64570834 711.50275988 10.21968136 711.50577117 8.79369842 711.5145494 C-5.11752183 711.59468893 -17.60691262 709.92314549 -29.38669682 702.13422108 C-30.0196265 701.71656483 -30.65255619 701.29890858 -31.30466557 700.86859608 C-39.47095292 694.66446014 -46.20614355 684.10246458 -48.38669682 674.13422108 C-48.56716557 673.34144764 -48.74763432 672.5486742 -48.93357182 671.73187733 C-51.1883017 658.80605512 -48.20648384 646.88544847 -41.32419682 635.88812733 C-32.83261333 623.81843709 -21.14507656 617.92903678 -7.05075932 614.76312733 C-3.72232603 614.19182908 -0.74896677 614.0865272 2.61330318 614.13422108 C2.60664135 613.42916935 2.59997952 612.72411762 2.59311581 611.99770069 C2.53221022 605.24958552 2.48693468 598.50151301 2.45786667 591.75319099 C2.44241862 588.28641011 2.42157961 584.8198621 2.38698483 581.35321522 C1.84519782 525.53712854 18.62033553 479.76354901 58.03566647 439.54413319 C63.75201585 433.76989129 69.54827439 428.3417697 75.93752193 423.30609608 C78.94358035 420.86614209 81.78317404 418.27283772 84.61330318 415.63422108 C89.20044502 411.36457694 93.94777463 407.37660037 98.83205318 403.44672108 C102.38515405 400.49245744 105.75353999 397.36508684 109.1350317 394.21796131 C112.34629369 391.24706479 115.63958134 388.43461031 119.05080318 385.69672108 C134.33230606 374.46177976 134.33230606 374.46177976 141.93361568 358.18890858 C142.19330476 351.14267837 141.59690329 346.48355281 136.79689693 341.09515858 C131.99384618 336.09448677 126.77234023 331.71433977 121.36720943 327.38422108 C118.70403869 325.20835391 116.15287871 322.95243899 113.61330318 320.63422108 C110.21731637 317.53866911 106.75158788 314.58270901 103.17580318 311.69672108 C98.3990181 307.8336389 93.87383437 303.75510673 89.35549068 299.59515858 C86.71314436 297.22382213 84.00636152 294.9816911 81.23830318 292.75922108 C75.80357455 288.37411815 70.71315535 283.67889321 65.61330318 278.91547108 C63.26313601 276.72354458 60.86892715 274.59769801 58.42580318 272.50922108 C25.99150976 244.12921433 6.55231738 203.07744089 2.81580257 160.30852222 C2.44187919 154.4470456 2.49192725 148.58737119 2.51564693 142.71625233 C2.51751721 141.36433941 2.51893822 140.01242581 2.51993465 138.66051197 C2.52371192 135.14086429 2.53349993 131.62125936 2.54463863 128.1016283 C2.5549571 124.4946599 2.5594544 120.88768443 2.56447506 117.28070545 C2.57512762 110.23186008 2.59214477 103.1830434 2.61330318 96.13422108 C1.48488506 96.14577732 1.48488506 96.14577732 0.33367062 96.15756702 C-0.65476841 96.16355915 -1.64320744 96.16955128 -2.66159916 96.17572498 C-3.64075291 96.18342915 -4.61990665 96.19113331 -5.62873173 96.19907093 C-14.91270008 95.98077085 -23.23389434 91.77471674 -30.38669682 86.13422108 C-31.07376713 85.6211742 -31.76083744 85.10812733 -32.46872807 84.57953358 C-42.1156117 76.86940478 -47.32732695 66.1291473 -49.38669682 54.13422108 C-50.42697193 40.17052814 -46.74120987 27.29926139 -37.76169682 16.44672108 C-27.81153186 5.86064332 -14.4396375 0.02355511 0 0 Z M15.61330318 96.13422108 C13.46343473 148.82293695 13.46343473 148.82293695 23.61330318 199.13422108 C23.86595943 199.82225819 24.11861568 200.5102953 24.37892818 201.21918201 C34.7893494 228.99306311 52.7002741 253.21797299 75.77736568 271.80609608 C79.38810953 274.77028799 82.84113281 277.88665693 86.29689693 281.02875233 C92.41282579 286.58775005 98.71099928 291.93808455 104.98952389 297.31146717 C111.24526604 302.66834362 117.46734206 308.06369876 123.68703365 313.46234608 C126.99480528 316.33327385 130.30397465 319.20258826 133.61330318 322.07172108 C134.21199215 322.5911327 134.81068111 323.11054432 135.42751217 323.64569569 C136.0044482 324.1459325 136.58138424 324.64616932 137.17580318 325.16156483 C137.74033199 325.65463123 138.3048608 326.14769764 138.88649654 326.65570545 C140.06230417 327.66244813 141.2569118 328.64754833 142.46706295 329.6127367 C149.31540848 335.15182632 153.70159038 342.65738515 155.15627193 351.39593983 C155.46261574 362.789012 151.2621829 371.70490404 143.83205318 380.16156483 C139.41416907 384.73335064 134.55440176 388.67663163 129.60158443 392.64984608 C126.32816901 395.37127381 123.21768687 398.22380405 120.11330318 401.13422108 C115.35611673 405.58997451 110.45509757 409.76557501 105.37111568 413.84906483 C101.23331344 417.277697 97.31659212 420.93315021 93.37502193 424.58343983 C88.85524015 428.75800489 84.22470141 432.79052567 79.50392818 436.73578358 C41.10184924 468.96328261 21.70076908 506.52195983 14.61330318 556.13422108 C14.61330318 575.60422108 14.61330318 595.07422108 14.61330318 615.13422108 C120.54330318 615.13422108 226.47330318 615.13422108 335.61330318 615.13422108 C336.93302013 572.52139614 336.93302013 572.52139614 331.42580318 530.82172108 C331.21077145 529.94274158 330.99573971 529.06376209 330.77419186 528.15814686 C323.27462851 498.65192834 308.40817952 473.31588838 287.12453365 451.67181873 C285.84870552 450.37373059 284.59028839 449.05856402 283.33595943 447.73968983 C279.05577861 443.30195633 274.4073419 439.4738372 269.60158443 435.61859608 C266.3281704 432.8971695 263.21767166 430.04465249 260.11330318 427.13422108 C256.21772478 423.48515483 252.2799397 419.97722014 248.11330318 416.63422108 C243.35061107 412.81299136 238.89732201 408.74225276 234.44484615 404.5712328 C231.14135056 401.49428494 227.76909766 398.57757037 224.23830318 395.75922108 C219.5800875 392.00524726 215.13446906 388.06352229 210.73830318 384.00922108 C210.10746822 383.43510487 209.47663326 382.86098866 208.82668209 382.26947498 C200.36969957 374.38997646 195.6308155 366.5286888 195.11330318 354.82172108 C195.33917186 346.42529841 197.85868891 338.60969025 203.73830318 332.44672108 C205.00368317 331.31252519 206.29834675 330.21054648 207.61330318 329.13422108 C208.42927975 328.46261951 209.24525631 327.79101795 210.08595943 327.09906483 C211.93378169 325.59156092 213.78686872 324.0904925 215.64455318 322.59515858 C219.85338815 319.10625591 223.84159695 315.39829108 227.85158443 311.68500233 C232.40081583 307.48323698 237.07697402 303.43979595 241.79299068 299.42718983 C247.55009019 294.52296429 253.25973133 289.59492521 258.80080318 284.44672108 C262.44743694 281.05897734 266.16947719 277.81524311 270.05080318 274.69672108 C275.98305653 269.90988841 281.56805402 264.80237945 287.09816647 259.56146717 C288.45257609 258.28562465 289.82662329 257.0307037 291.20314693 255.77875233 C310.15689446 237.93089606 323.21725924 213.17508279 329.61330318 188.13422108 C329.81391354 187.35192127 330.01452389 186.56962147 330.22121334 185.76361561 C337.93956172 155.16071025 334.61330318 132.80199672 334.61330318 96.13422108 C229.34330318 96.13422108 124.07330318 96.13422108 15.61330318 96.13422108 Z " fill="#213254" transform="translate(204.38669681549072,23.865778923034668)"/>
<path d="M0 0 C105.27 0 210.54 0 319 0 C319 74.55246836 319 74.55246836 313.125 94.6875 C312.86307861 95.58758789 312.60115723 96.48767578 312.33129883 97.41503906 C310.32465598 104.16925387 308.07252201 110.64735315 305 117 C304.71350586 117.60666504 304.42701172 118.21333008 304.13183594 118.83837891 C293.11833097 141.89896392 276.61058654 161.21967262 256.55078125 176.95703125 C252.72232656 180.02331272 249.15051715 183.35544059 245.5390625 186.671875 C241.0395878 190.79754719 236.42655145 194.78605473 231.78125 198.74609375 C230.58319225 199.7680638 229.3852799 200.79020431 228.1875 201.8125 C227.58147949 202.32965576 226.97545898 202.84681152 226.35107422 203.37963867 C222.60967738 206.5847653 218.93901522 209.85193729 215.3125 213.1875 C211.85984304 216.35830742 208.34469034 219.38035031 204.6875 222.3125 C202.78523182 223.86715946 200.88996661 225.43040881 199 227 C198.41718262 227.48339844 197.83436523 227.96679688 197.23388672 228.46484375 C188.07153429 236.16938545 181.16336782 242.84527377 179.58203125 255.2890625 C179.11588395 266.04824619 182.60650744 275.08746841 189.8671875 283.046875 C194.62569701 287.95779229 199.71333944 292.28246299 205.046875 296.55078125 C208.31097726 299.25791368 211.40765599 302.10058542 214.5 305 C218.39555889 308.64908416 222.33336596 312.15700292 226.5 315.5 C231.26269211 319.32122972 235.71598118 323.39196832 240.16845703 327.56298828 C243.47195262 330.63993614 246.84420553 333.5566507 250.375 336.375 C257.02820944 341.72289456 263.19955559 347.56756341 269.37451172 353.45361328 C270.69062944 354.70568442 272.01752663 355.94641828 273.34765625 357.18359375 C283.29064693 366.67741442 291.21082635 378.11196137 298 390 C298.3309668 390.5676709 298.66193359 391.1353418 299.00292969 391.72021484 C313.35971068 416.48394474 320.60284805 444.40354681 319 473 C313.93602065 469.32762386 309.21040235 465.50533553 304.6875 461.1875 C299.76738838 456.56006383 294.68376669 452.24114992 289.4140625 448.01171875 C287.31083811 446.25903175 285.39941067 444.46692526 283.5 442.5 C280.81032435 439.71494578 277.96031728 437.29501384 274.9375 434.875 C270.33162317 431.16736471 265.95096604 427.28027575 261.625 423.25 C261.04226318 422.70714355 260.45952637 422.16428711 259.85913086 421.60498047 C258.23110052 420.07848219 256.613805 418.54151468 255 417 C254.49694336 416.52755859 253.99388672 416.05511719 253.47558594 415.56835938 C252.27774793 414.41850223 251.13308458 413.21371607 250 412 C250 411.34 250 410.68 250 410 C251.1960083 409.98541748 252.3920166 409.97083496 253.62426758 409.95581055 C258.05816675 409.89787414 262.49155558 409.82064126 266.92504883 409.73754883 C268.84456098 409.7042775 270.76417148 409.67625246 272.68383789 409.65356445 C275.44199572 409.62005879 278.19925043 409.56774597 280.95703125 409.51171875 C282.24623222 409.50213387 282.24623222 409.50213387 283.56147766 409.49235535 C284.36208115 409.47256119 285.16268463 409.45276703 285.98754883 409.43237305 C286.6914827 409.42126999 287.39541656 409.41016693 288.12068176 409.39872742 C290.56948459 408.87917474 291.47977715 407.95682367 293 406 C293.41679297 403.45769153 293.41679297 403.45769153 293 401 C290.53809832 398.53809832 289.83329787 398.74046555 286.44604492 398.70947266 C285.50133835 398.69671295 284.55663177 398.68395325 283.58329773 398.67080688 C282.55936417 398.66858124 281.5354306 398.66635559 280.48046875 398.6640625 C279.42974686 398.6574057 278.37902496 398.6507489 277.29646301 398.64389038 C275.06964879 398.63375033 272.84280409 398.62907378 270.6159668 398.62939453 C267.21156474 398.62503085 263.80846854 398.58875057 260.40429688 398.55078125 C258.24219194 398.54491149 256.08008084 398.54094316 253.91796875 398.5390625 C252.90010788 398.52469147 251.88224701 398.51032043 250.83354187 398.49551392 C245.00471669 398.52551442 245.00471669 398.52551442 239.81762695 401.02880859 C239.21781006 401.67930176 238.61799316 402.32979492 238 403 C237.26136719 402.31035156 236.52273438 401.62070312 235.76171875 400.91015625 C229.9024022 395.47151857 223.94556319 390.26106306 217.71484375 385.24609375 C213.93432714 382.11832821 210.35519125 378.78726117 206.74609375 375.46484375 C204.08124834 373.07292703 201.35168175 370.80745116 198.5625 368.5625 C194.03136161 364.9079403 189.75016831 361.06159298 185.49389648 357.09716797 C181.34187587 353.25362946 177.00966106 349.67736203 172.5703125 346.16796875 C171.72210938 345.45253906 170.87390625 344.73710937 170 344 C168.97052246 343.20432617 167.94104492 342.40865234 166.88037109 341.58886719 C163.30293973 337.95532504 163.29836611 334.61430286 163.2689209 329.67701721 C163.3059613 328.05992104 163.3059613 328.05992104 163.34375 326.41015625 C163.34749634 325.274608 163.35124268 324.13905975 163.35510254 322.96910095 C163.36853949 320.55911557 163.39636122 318.14917366 163.4375 315.73950195 C163.49878735 312.1338427 163.51935596 308.52995254 163.53125 304.92382812 C163.6058641 293.71767787 163.95400784 282.560148 164.88671875 271.390625 C164.96059814 270.48832657 165.03447754 269.58602814 165.1105957 268.65638733 C165.96886758 259.48151038 168.10327187 250.73258641 171 242 C171.31195313 241.02933594 171.62390625 240.05867187 171.9453125 239.05859375 C176.54390954 227.7793577 189.08521574 219.61066306 198.2890625 212.2421875 C201.2890434 209.76093529 204.15155272 207.15137341 207 204.5 C210.68731046 201.06780134 214.44112217 197.77440952 218.375 194.625 C223.41576842 190.57204787 228.1078768 186.22383154 232.8125 181.79296875 C236.23158604 178.59037505 239.70650372 175.54437392 243.375 172.625 C250.36379494 167.02361028 256.80306925 160.83451955 263.27197266 154.64892578 C264.65576921 153.32847341 266.05069421 152.01968722 267.44921875 150.71484375 C277.30661937 141.29732713 284.76753951 130.04571187 291 118 C291.45802002 117.11489746 291.45802002 117.11489746 291.92529297 116.21191406 C300.48337425 99.38817926 304.89454568 82.7274621 307 64 C306.16807129 64.24290771 306.16807129 64.24290771 305.31933594 64.49072266 C302.80027248 65.21715271 300.27548507 65.92123638 297.75 66.625 C296.44095703 67.00785156 296.44095703 67.00785156 295.10546875 67.3984375 C294.26113281 67.63046875 293.41679688 67.8625 292.546875 68.1015625 C291.77182617 68.32150879 290.99677734 68.54145508 290.19824219 68.76806641 C286.20224096 69.18967915 283.34413637 66.62023439 280.125 64.5 C274.72164513 61.13527352 270.41641621 60.00257804 264.0625 59.75 C258.85573101 59.38177936 255.97648292 58.4161336 252.3359375 54.66015625 C248.44639372 49.82665887 247.38844681 45.64689351 247.58203125 39.53515625 C248.43128284 34.38408818 250.97880351 30.45506338 255.19213867 27.421875 C258.51897793 25.73719438 260.79164021 25.60292871 264.5078125 25.55859375 C265.74144531 25.53216797 266.97507812 25.50574219 268.24609375 25.47851562 C269.52613281 25.46498047 270.80617188 25.45144531 272.125 25.4375 C274.66940133 25.4031162 277.21370916 25.36054141 279.7578125 25.30859375 C280.8833252 25.29626709 282.00883789 25.28394043 283.16845703 25.27124023 C286.20372512 25.2056728 286.20372512 25.2056728 289 23 C289.33338596 19.45812169 289.33338596 19.45812169 289 16 C286.29878626 13.29878626 278.67308217 14.63705228 274.80200195 14.5949707 C273.32487373 14.57355371 271.84786663 14.53964766 270.37133789 14.49243164 C261.00189982 14.19570989 253.44004734 14.55071508 246 21 C239.10994386 28.45033682 237.53093584 35.38723133 237.6796875 45.44921875 C238.30605187 52.39269694 240.86969433 59.14700815 246 64 C251.89657214 68.03194769 258.12123964 70.23363774 265 72 C255.28898103 78.47401265 241.58380311 80.52455319 230.45068359 83.46777344 C223.64484119 85.27005211 216.91201926 87.17197716 210.22265625 89.37109375 C208 90 208 90 205 90 C205 84.06 205 78.12 205 72 C206.876875 71.113125 208.75375 70.22625 210.6875 69.3125 C218.44894207 65.40444994 224.70993459 59.83986425 227.55297852 51.34838867 C228.17927778 48.05817968 228.16262546 44.79761795 228.16796875 41.4609375 C228.17129715 40.73887115 228.17462555 40.01680481 228.17805481 39.27285767 C228.18310416 37.75157303 228.18546375 36.23027738 228.18530273 34.70898438 C228.18749895 32.37611915 228.20570156 30.04371974 228.22460938 27.7109375 C228.22754172 26.23177245 228.22952758 24.75260516 228.23046875 23.2734375 C228.24124702 22.22499161 228.24124702 22.22499161 228.25224304 21.15536499 C228.34560018 17.12998355 228.34560018 17.12998355 226 14 C222.43407381 14.16417032 222.43407381 14.16417032 219 15 C217.54458938 17.91082123 217.83469937 20.51745235 217.7890625 23.765625 C217.76097918 25.14454282 217.73231463 26.5234489 217.703125 27.90234375 C217.66198605 30.07242316 217.62509404 32.24228694 217.59863281 34.41259766 C217.57085398 36.50989965 217.52497208 38.60621079 217.4765625 40.703125 C217.45674316 41.95770508 217.43692383 43.21228516 217.41650391 44.50488281 C216.88939775 48.92812532 215.51839113 52.33530556 212.5 55.64453125 C207.05583356 59.88360876 202.86709161 60.52154298 196.08984375 60.48046875 C191.06955442 59.69981693 188.0076611 56.98707894 185 53 C182.91317013 48.80550511 182.73547689 45.23594868 182.69140625 40.58203125 C182.6662719 39.14908402 182.64087355 37.71614141 182.61523438 36.28320312 C182.58637927 34.03817701 182.56234002 31.79323026 182.54370117 29.5480957 C182.52212742 27.37151785 182.4827297 25.1958103 182.44140625 23.01953125 C182.42122437 21.07203979 182.42122437 21.07203979 182.40063477 19.08520508 C182.26842529 18.0670874 182.13621582 17.04896973 182 16 C178.77626323 13.85084215 177.73296326 13.61713197 174 14 C171.18592123 16.81407877 171.67601098 19.51244981 171.6640625 23.28125 C171.6574057 24.0093689 171.6507489 24.73748779 171.64389038 25.4876709 C171.63375095 27.03439814 171.62907376 28.58116924 171.62939453 30.12792969 C171.62506733 32.46365823 171.58889589 34.79742445 171.55078125 37.1328125 C171.47700533 46.62561153 171.91154965 54.91249223 178.078125 62.5859375 C178.79484375 63.17632812 179.5115625 63.76671875 180.25 64.375 C180.95640625 64.98085937 181.6628125 65.58671875 182.390625 66.2109375 C185.71332301 68.48907476 189.39664252 70.19832126 193 72 C193 79.26 193 86.52 193 94 C184.375 96.375 184.375 96.375 181.69287109 97.11083984 C178.32583237 98.04221292 175.02033061 98.99277026 171.7265625 100.1640625 C168.96905098 101.00948867 166.85895964 101.06411836 164 101 C164.00079559 100.19979431 164.00159119 99.39958862 164.00241089 98.57513428 C164.00463083 90.98496427 163.97790285 83.39567988 163.9197216 75.8057518 C163.89081127 71.90484619 163.87258215 68.00453486 163.87988281 64.10351562 C163.88653431 60.32938687 163.86366704 56.55642637 163.82144547 52.78253937 C163.81041643 51.35229916 163.80952065 49.92193897 163.81957626 48.49169159 C163.8832382 38.09265523 162.3528368 29.01368867 155.19625854 20.97357178 C148.3833335 14.56800963 141.664345 13.3661345 132.51171875 13.58984375 C125.67671313 14.38814808 120.35961287 17.21733425 115.625 22.1875 C109.17522308 30.95947389 108.40082029 39.67651756 108.390625 50.3203125 C108.37561099 51.67367499 108.3588772 53.02701937 108.34051514 54.38034058 C108.29718929 57.90821262 108.27692094 61.43583771 108.26177979 64.96392822 C108.24208169 68.5776611 108.20012697 72.19113206 108.16015625 75.8046875 C108.08523232 82.86969116 108.03471339 89.9346748 108 97 C105.36 96.67 102.72 96.34 100 96 C99.99453156 94.94003563 99.99453156 94.94003563 99.98895264 93.85865784 C99.95092267 87.16535014 99.89390189 80.47249656 99.81609726 73.77952671 C99.77676157 70.33940927 99.7445059 66.89954246 99.72900391 63.45922852 C99.71081759 59.49462747 99.6608053 55.53072058 99.609375 51.56640625 C99.60814636 50.34417862 99.60691772 49.12195099 99.60565186 47.86268616 C99.48364077 40.68182262 98.58555386 35.25780725 95 29 C94.63219421 28.34612808 94.26438843 27.69225616 93.88543701 27.01856995 C89.66034934 19.8847308 81.70418002 16.23722229 74 14 C69.44309811 13.59782579 64.88546966 13.67545953 60.3125 13.6875 C58.45915039 13.66333008 58.45915039 13.66333008 56.56835938 13.63867188 C55.38693359 13.63802734 54.20550781 13.63738281 52.98828125 13.63671875 C51.37240112 13.63224731 51.37240112 13.63224731 49.72387695 13.62768555 C47.05072028 13.78717267 47.05072028 13.78717267 45.35678101 15.11758423 C43.3595688 17.88854265 43.59944583 20.099075 43.56762695 23.4909668 C43.5574353 24.1448941 43.54724365 24.79882141 43.53674316 25.4725647 C43.50657663 27.63153611 43.49734219 29.79006414 43.48828125 31.94921875 C43.47143717 33.44710265 43.45328729 34.94497239 43.43388367 36.44282532 C43.38634763 40.38338802 43.35656186 44.32389332 43.33044434 48.26464844 C43.3006568 52.28657367 43.25412034 56.30830104 43.20898438 60.33007812 C43.12291037 68.21995496 43.05558359 76.10984974 43 84 C40.79154015 83.68839539 38.58323749 83.37567654 36.375 83.0625 C35.14523438 82.88847656 33.91546875 82.71445313 32.6484375 82.53515625 C30.32364058 82.19415285 28.00187042 81.83129272 25.68505859 81.43969727 C23.26754794 81.04381286 21.06788816 80.89538124 18.625 80.9375 C17.42875 80.958125 16.2325 80.97875 15 81 C19.72676163 119.53623718 47.26079651 150.3879972 76.21875 173.6875 C79.77185086 176.64176364 83.1402368 179.76913424 86.52172852 182.91625977 C89.7329905 185.88715628 93.02627815 188.69961077 96.4375 191.4375 C100.62237553 194.80346464 104.58312431 198.33177829 108.5 202 C113.27704013 206.47342363 118.19521255 210.67407577 123.30078125 214.7734375 C127.18281827 217.97569669 130.86963116 221.37553274 134.55859375 224.796875 C136.44964144 226.50335644 138.32145827 228.00842493 140.375 229.5 C154.07738218 242.54988779 153.77335857 268.37321988 154.22460938 285.87255859 C154.34798463 292.32487466 154.41244635 298.77770459 154.45996094 305.23095703 C154.48240101 308.00500849 154.52446941 310.77774921 154.58300781 313.55126953 C154.66784771 317.58386245 154.69521554 321.61501503 154.71875 325.6484375 C154.76823792 327.50171158 154.76823792 327.50171158 154.81872559 329.39242554 C154.80534335 335.13785048 154.79133767 338.96505444 150.6262207 343.18847656 C149.44420948 344.15914562 148.23687705 345.10028665 147 346 C145.64455078 347.15628906 145.64455078 347.15628906 144.26171875 348.3359375 C143.41222656 349.00882812 142.56273437 349.68171875 141.6875 350.375 C138.02599735 353.32218494 134.47190673 356.33167812 131 359.5 C126.70008209 363.41891252 122.24080453 367.09170869 117.71875 370.75 C114.21522322 373.64947043 110.87106107 376.70551573 107.51171875 379.76953125 C105.00541256 381.99519351 102.43075607 384.09521561 99.8125 386.1875 C94.25063481 390.66567799 89.08840107 395.52309414 83.95043945 400.47924805 C83.33644287 401.06488525 82.72244629 401.65052246 82.08984375 402.25390625 C81.26794556 403.04776733 81.26794556 403.04776733 80.42944336 403.85766602 C79 405 79 405 77 405 C76.690625 404.195625 76.38125 403.39125 76.0625 402.5625 C75.23664655 400.10919595 75.23664655 400.10919595 74 399 C69.88950717 398.73140087 65.77500616 398.72852304 61.65649414 398.70483398 C59.60166491 398.68782421 57.54853296 398.64399516 55.49414062 398.59960938 C46.26231257 398.54086549 38.65506392 399.17326363 31.34375 405.18359375 C30.7353125 405.92738281 30.126875 406.67117188 29.5 407.4375 C28.8709375 408.17871094 28.241875 408.91992188 27.59375 409.68359375 C22.90789146 416.49416756 22.73853145 425.00268989 24 433 C25.52195836 436.78155297 27.49058031 439.80796615 30 443 C30.99 444.485 30.99 444.485 32 446 C25.68709726 451.84889828 19.2917638 457.48356554 12.5859375 462.8828125 C9.48622153 465.42064642 6.51099766 468.07827449 3.55859375 470.78515625 C2 472 2 472 0 472 C-1.82875378 430.71080353 14.02557102 392.32117807 41.45068359 361.68994141 C48.86059067 353.60746792 56.61354637 346.07476072 65.22265625 339.2734375 C68.44102902 336.6389889 71.46778115 333.84426038 74.5 331 C79.2570465 326.54411199 84.15822089 322.3686338 89.2421875 318.28515625 C93.37998974 314.85652408 97.29671107 311.20107087 101.23828125 307.55078125 C105.82557979 303.31385629 110.52870394 299.22636491 115.3203125 295.22265625 C132.02142306 281.26230509 132.02142306 281.26230509 139.34375 261.37890625 C139.8372656 252.48328764 137.14554138 245.16476014 132 238 C128.62070714 234.26554189 124.94086295 231.12606291 121 228 C119.16632054 226.50042315 117.33298328 225.00042774 115.5 223.5 C114.5925 222.7678125 113.685 222.035625 112.75 221.28125 C108.95952529 218.13687893 105.36455614 214.79597945 101.7421875 211.4609375 C99.09984117 209.08960105 96.39305833 206.84747003 93.625 204.625 C89.421856 201.23614031 85.43796823 197.68760734 81.5 194 C76.69799245 189.5036455 71.75487801 185.27563232 66.625 181.15234375 C63.08609993 178.25065634 59.70630943 175.19151459 56.328125 172.10546875 C54.27570017 170.24933287 52.18154291 168.46629008 50.0625 166.6875 C30.73249627 149.72522765 16.51970191 127.13065272 8 103 C7.77473633 102.37448242 7.54947266 101.74896484 7.31738281 101.10449219 C-4.36573444 68.25509973 0 34.89407366 0 0 Z " fill="#C4D5EA" transform="translate(220,120)"/>
<path d="M0 0 C1.50135925 -0.00417737 3.00271535 -0.00965709 4.50406563 -0.01631981 C8.612731 -0.03074041 12.72119519 -0.02654033 16.82987142 -0.019153 C21.26761192 -0.01441522 25.70530929 -0.02693659 30.14303589 -0.03717041 C38.83042011 -0.05435191 47.51773198 -0.05519975 56.20512877 -0.04995751 C63.26766131 -0.04591329 70.33017249 -0.04736236 77.39270401 -0.05270576 C78.39854014 -0.05345419 79.40437627 -0.05420261 80.44069228 -0.05497371 C82.48416344 -0.05650522 84.52763459 -0.05804356 86.57110573 -0.05958868 C105.72733092 -0.07331143 124.88351525 -0.06787766 144.0397395 -0.05640347 C161.55606345 -0.04647181 179.07228176 -0.059411 196.58858941 -0.08333766 C214.58438593 -0.10773364 232.58013325 -0.11733527 250.57594597 -0.11068493 C260.67520286 -0.10719376 270.77437852 -0.10941803 280.87362289 -0.12693596 C289.47105888 -0.14166418 298.06835642 -0.14228527 306.66578971 -0.12486505 C311.04997859 -0.11635772 315.43392023 -0.11419893 319.81809616 -0.1295166 C323.8363593 -0.14338171 327.8541638 -0.13857739 331.87240054 -0.11927737 C333.32117231 -0.11552261 334.76998098 -0.11842419 336.21871983 -0.12888902 C348.7342291 -0.21282066 359.43534048 2.14114199 369.17288208 10.38768005 C375.99972168 17.30914911 380.2918421 25.75529363 380.54788208 35.57518005 C380.03714539 46.0205692 376.07322136 54.52479344 369.17288208 62.38768005 C366.72756958 64.30174255 366.72756958 64.30174255 364.04788208 66.01268005 C363.17905396 66.58244568 362.31022583 67.1522113 361.41506958 67.73924255 C352.21573759 72.41649327 343.43853171 72.82177435 333.25674438 72.77536011 C331.75793418 72.77953868 330.25912714 72.78501906 328.76032591 72.79167992 C324.66339056 72.80608434 320.56665724 72.80190557 316.46971107 72.79451311 C312.04291399 72.78977138 307.61615998 72.80230007 303.18937683 72.81253052 C294.52586022 72.82970341 285.8624162 72.83056177 277.19888699 72.82531761 C270.15639265 72.82127234 263.11391972 72.82272371 256.07142639 72.82806587 C254.56660539 72.82918851 254.56660539 72.82918851 253.03138396 72.83033382 C250.99322561 72.83186533 248.95506726 72.83340367 246.91690892 72.83494879 C227.81555227 72.84866803 208.7142366 72.84323988 189.61288089 72.83176357 C172.1444438 72.82182888 154.6761126 72.83477699 137.20769185 72.85869776 C119.26045901 72.88308865 101.31327548 72.89269684 83.3660264 72.88604504 C73.29420294 72.88255318 63.22246094 72.8847829 53.15065002 72.90229607 C44.57809605 72.91701777 36.00568092 72.91765372 27.43312967 72.90022516 C23.06120908 72.8917131 18.68953652 72.88957069 14.31762886 72.90487671 C10.31179344 72.91872734 6.30641846 72.91395608 2.30060965 72.89463747 C0.85525029 72.89087834 -0.59014599 72.893797 -2.03547245 72.90424912 C-14.41189554 72.98735348 -24.18948402 70.37896191 -33.82711792 62.38768005 C-41.23128572 54.73615698 -45.29257397 44.05853926 -45.16696167 33.4931488 C-44.07193574 23.48687738 -38.35791074 14.00680373 -30.69430542 7.60643005 C-20.96057737 0.68768259 -11.71790119 -0.05317672 0 0 Z " fill="#324870" transform="translate(211.82711791992188,35.61231994628906)"/>
<path d="M0 0 C1.91845498 -0.00761181 1.91845498 -0.00761181 3.87566662 -0.0153774 C5.29803145 -0.01597906 6.72039633 -0.01647815 8.14276123 -0.01688576 C9.65146402 -0.02090113 11.16016574 -0.02533948 12.66886616 -0.03016531 C16.82103822 -0.04212851 20.97319866 -0.04777869 25.12538457 -0.05234647 C29.6013943 -0.05830358 34.07739014 -0.06991322 38.5533905 -0.08063698 C49.36685006 -0.10515937 60.18031421 -0.11978836 70.99379301 -0.13269705 C74.04834364 -0.13640924 77.10289382 -0.14038246 80.157444 -0.14444971 C99.12799375 -0.16968766 118.09854422 -0.19173961 137.06910706 -0.20417786 C141.46328738 -0.20710753 145.85746768 -0.2100692 150.25164795 -0.21308327 C151.88986678 -0.21420234 151.88986678 -0.21420234 153.56118095 -0.21534403 C171.24851872 -0.22799437 188.93575588 -0.26121317 206.62304664 -0.3028851 C224.78479119 -0.34532383 242.94648427 -0.36887518 261.10827827 -0.37409842 C271.30437089 -0.37751044 281.50030632 -0.38924099 291.6963501 -0.42220116 C300.38098365 -0.4502295 309.06542779 -0.46118878 317.75010306 -0.4500057 C322.17900165 -0.44482609 326.60750377 -0.44766021 331.03634453 -0.47247124 C335.0968632 -0.49502833 339.15670208 -0.49417432 343.21723318 -0.47526737 C344.68031471 -0.47247634 346.14344297 -0.47801571 347.6064496 -0.4930803 C360.40245885 -0.61670489 370.52467058 1.98861934 379.90350342 11.02763939 C387.51975408 19.45545775 389.32092193 28.11274935 389.11053467 39.35185814 C388.37136827 48.65383523 384.88474513 55.19852636 378.45819092 61.90263939 C371.67377398 67.62636577 363.61654057 71.25844551 354.75258541 71.26844215 C353.47785647 71.2722833 352.20312754 71.27612444 350.88977045 71.28008199 C349.46701549 71.27930169 348.04426058 71.2784229 346.62150574 71.27745628 C345.11636579 71.28003915 343.61122653 71.28305209 342.10608822 71.28645968 C337.95919296 71.29454247 333.81231499 71.29631997 329.66541278 71.29705715 C325.19692511 71.29890554 320.72844646 71.3064519 316.25996399 71.31319237 C306.48292374 71.32678634 296.70588758 71.33280236 286.92883945 71.33720303 C280.82452288 71.33996423 274.7202079 71.34420142 268.61589241 71.3487072 C251.71728203 71.36090236 234.81867293 71.37120047 217.92005825 71.37458229 C216.83803352 71.37480186 215.75600878 71.37502142 214.64119542 71.37524764 C213.55656335 71.37546592 212.47193128 71.3756842 211.35443157 71.37590909 C209.15651476 71.37635256 206.95859796 71.37679912 204.76068115 71.37724876 C203.12531306 71.37758091 203.12531306 71.37758091 201.45690722 71.37791976 C183.79728424 71.38186641 166.13770256 71.39931528 148.47809552 71.42260829 C130.35029168 71.4463259 112.22250856 71.45878437 94.09468895 71.45995021 C83.91545843 71.46086686 73.73628167 71.4666164 63.55706596 71.48476982 C54.88738555 71.50017647 46.21777552 71.50528801 37.54808401 71.49703172 C33.12561435 71.49312693 28.70328639 71.4940464 24.2808342 71.50808907 C20.22853847 71.52083847 16.17649078 71.51962138 12.12419534 71.50749835 C10.66179946 71.50554313 9.19938595 71.50861174 7.73701482 71.51734272 C-5.84527406 71.59327026 -15.15383646 69.77899947 -25.10040283 60.32060814 C-32.53699234 52.50508413 -34.76961509 44.63027657 -34.59283447 33.96904564 C-34.1615322 23.68621289 -30.6973519 16.73461205 -23.52618408 9.44560814 C-16.57676871 3.11497633 -9.37727928 0.01974557 0 0 Z " fill="#334971" transform="translate(202.19024658203125,650.8629856109619)"/>
<path d="M0 0 C1.16015625 -0.00515625 2.3203125 -0.0103125 3.515625 -0.015625 C5.32933594 0.00757813 5.32933594 0.00757813 7.1796875 0.03125 C8.365625 0.01578125 9.5515625 0.0003125 10.7734375 -0.015625 C21.71738561 0.03269265 31.06700884 2.76640358 39.0546875 10.53125 C46.20537079 19.38220687 47.36409681 27.01041514 47.35546875 38.1640625 C47.35975388 39.39228729 47.364039 40.62051208 47.36845398 41.88595581 C47.37418995 44.48320908 47.37470295 47.0804784 47.37036133 49.67773438 C47.36721532 53.62137845 47.39062267 57.56426184 47.41601562 61.5078125 C47.41829029 64.03906156 47.41899134 66.57031262 47.41796875 69.1015625 C47.4271785 70.26761017 47.43638824 71.43365784 47.44587708 72.63504028 C47.38147233 84.22508304 45.75028285 95.64748803 37.38671875 104.24609375 C28.05378359 112.67251865 18.98256894 112.73269861 6.9296875 112.78125 C5.64191406 112.801875 4.35414063 112.8225 3.02734375 112.84375 C1.18076172 112.85148437 1.18076172 112.85148437 -0.703125 112.859375 C-1.8286377 112.8687207 -2.95415039 112.87806641 -4.11376953 112.88769531 C-6.9453125 112.53125 -6.9453125 112.53125 -8.59805393 111.27897549 C-10.28209306 109.09436284 -10.3243096 107.9496457 -10.33299255 105.2111969 C-10.34289719 104.32936737 -10.35280182 103.44753784 -10.36300659 102.53898621 C-10.35850494 101.57422867 -10.3540033 100.60947113 -10.34936523 99.61547852 C-10.35622849 98.5973407 -10.36309174 97.57920288 -10.37016296 96.5302124 C-10.38849966 93.15671943 -10.38458355 89.78368848 -10.37890625 86.41015625 C-10.3834648 84.06989896 -10.38876939 81.72964302 -10.39479065 79.38938904 C-10.40373532 74.48081021 -10.4012832 69.57239397 -10.39135742 64.66381836 C-10.37986726 58.36741375 -10.40007362 52.0715699 -10.42927456 45.77523899 C-10.44760377 40.94114098 -10.44735059 36.10717815 -10.44163704 31.27305412 C-10.44148342 28.95137686 -10.44756131 26.62969067 -10.45992851 24.30804634 C-10.47477405 21.06380979 -10.46420802 17.82061939 -10.44702148 14.57641602 C-10.45668945 13.61368271 -10.46635742 12.6509494 -10.47631836 11.65904236 C-10.40420893 5.17229551 -10.40420893 5.17229551 -8.08732605 1.93577576 C-5.2621671 0.08330918 -3.36745696 0.01451714 0 0 Z " fill="#1E2E52" transform="translate(272.9453125,132.46875)"/>
<path d="M0 0 C4.80552112 2.80913878 8.55994071 6.30943474 11.5625 11 C11.89610031 11.50192368 12.22970062 12.00384735 12.57341003 12.52098083 C17.16159136 20.81968917 16.11948153 30.36408727 16.05859375 39.55078125 C16.05874889 41.45647741 16.06024029 43.36217388 16.06300354 45.26786804 C16.06438301 49.24618612 16.05189955 53.22414167 16.02905273 57.20239258 C16.00057255 62.30136627 16.00343764 67.39974259 16.01614285 72.49876118 C16.0230935 76.42698781 16.01531938 80.35507616 16.00288582 84.28328514 C15.99837215 86.16395729 15.99803378 88.04464428 16.00195122 89.92531776 C16.00485988 92.54858581 15.9883768 95.17102603 15.96655273 97.79418945 C15.97105438 98.56983246 15.97555603 99.34547546 15.98019409 100.1446228 C15.93599026 103.34058005 15.75286232 105.64631054 14.2247467 108.48551941 C12.5625 110 12.5625 110 9.5625 110.4375 C6.5625 110 6.5625 110 4.89628601 108.7922821 C3.10466101 106.38477641 3.2002397 104.87116815 3.22192383 101.88598633 C3.22226372 100.32470757 3.22226372 100.32470757 3.22261047 98.73188782 C3.23809433 97.60993515 3.25357819 96.48798248 3.26953125 95.33203125 C3.27377609 94.18208176 3.27802094 93.03213226 3.28239441 91.84733582 C3.29920811 88.16882059 3.33686623 84.49085008 3.375 80.8125 C3.39004331 78.32097144 3.40373233 75.82943432 3.41601562 73.33789062 C3.44657049 67.22488093 3.50528947 61.11305131 3.5625 55 C-6.9975 55 -17.5575 55 -28.4375 55 C-28.39109375 58.79113281 -28.3446875 62.58226562 -28.296875 66.48828125 C-28.26569804 70.15192322 -28.24139953 73.81555053 -28.21777344 77.47924805 C-28.19763303 80.02944532 -28.17031903 82.57959628 -28.13574219 85.12963867 C-28.08733261 88.79096897 -28.06455526 92.45168982 -28.046875 96.11328125 C-28.02622986 97.2571077 -28.00558472 98.40093414 -27.98431396 99.579422 C-27.98401184 100.64029526 -27.98370972 101.70116852 -27.98339844 102.79418945 C-27.97451599 103.72906693 -27.96563354 104.6639444 -27.95648193 105.62715149 C-28.4375 108 -28.4375 108 -30.3057251 109.83317566 C-32.4375 111 -32.4375 111 -35 110.875 C-37.78596206 109.87491106 -38.7359714 109.41686086 -40.4375 107 C-40.73889234 104.23363657 -40.85757452 101.69137361 -40.84155273 98.92358398 C-40.85184761 97.68881065 -40.85184761 97.68881065 -40.86235046 96.42909241 C-40.88068388 93.70125167 -40.87676891 90.97398305 -40.87109375 88.24609375 C-40.87565518 86.34619459 -40.88096063 84.44629708 -40.88697815 82.54640198 C-40.89592414 78.557478 -40.89347247 74.56875401 -40.88354492 70.57983398 C-40.87210289 65.48792599 -40.89218561 60.3967164 -40.92146206 55.30490017 C-40.9398927 51.3764258 -40.93951712 47.44811625 -40.93382454 43.51960945 C-40.9336719 41.64388111 -40.93966878 39.76814119 -40.95211601 37.89245415 C-41.02452003 25.18274214 -40.76870593 14.45897891 -31.46484375 4.76171875 C-22.57367128 -2.96452168 -10.89631581 -4.87597694 0 0 Z " fill="#1E2F52" transform="translate(368.4375,135)"/>
<path d="M0 0 C3.0625 0.25 3.0625 0.25 6.0625 2.25 C6.43723011 4.11471558 6.43723011 4.11471558 6.4367218 6.42529297 C6.44724327 7.73768951 6.44724327 7.73768951 6.45797729 9.07659912 C6.45033356 10.03874329 6.44268982 11.00088745 6.43481445 11.9921875 C6.43846512 13.00363831 6.44211578 14.01508911 6.44587708 15.05718994 C6.45400831 18.41329541 6.4403509 21.76892195 6.42578125 25.125 C6.42526295 27.44905599 6.42577947 29.77311242 6.42729187 32.09716797 C6.42720203 36.97304815 6.4167487 41.8487634 6.39868164 46.72460938 C6.37599418 52.98634774 6.37544916 59.24784489 6.38219929 65.50961304 C6.38553482 70.31016193 6.37891702 75.11065545 6.36907005 79.91119385 C6.36521058 82.22055777 6.36407291 84.52992783 6.3656559 86.83929443 C6.36602521 90.06225397 6.35344381 93.2848999 6.3371582 96.5078125 C6.33963562 97.46995667 6.34211304 98.43210083 6.34466553 99.42340088 C6.33403831 100.73579742 6.33403831 100.73579742 6.32319641 102.07470703 C6.32114354 102.83719757 6.31909067 103.59968811 6.31697559 104.38528442 C6.0625 106.25 6.0625 106.25 4.0625 108.25 C0.4375 108.375 0.4375 108.375 -2.9375 108.25 C-7.65056156 99.04422781 -12.00228343 89.76548192 -16.0625 80.25 C-17.06485538 77.91655978 -18.0674757 75.58323336 -19.0703125 73.25 C-19.33604065 72.63012207 -19.6017688 72.01024414 -19.87554932 71.37158203 C-23.18537608 63.65543831 -26.52779001 55.95337726 -29.8671875 48.25 C-30.31614569 47.21431885 -30.31614569 47.21431885 -30.77417374 46.15771484 C-32.49495187 42.18833316 -34.21608465 38.21910539 -35.9375 34.25 C-35.94336624 35.13283157 -35.94923248 36.01566315 -35.95527649 36.92524719 C-36.0131447 45.23911402 -36.08518737 53.5527105 -36.17321491 61.86631489 C-36.21797088 66.1405938 -36.25721524 70.41477625 -36.28393555 74.68920898 C-36.30991673 78.81315422 -36.35028169 82.93672926 -36.40068626 87.06044579 C-36.41739023 88.63488351 -36.4288825 90.20938531 -36.43511391 91.78389931 C-36.44471706 93.98694428 -36.47272844 96.18903462 -36.50512695 98.3918457 C-36.52178154 100.27381401 -36.52178154 100.27381401 -36.53877258 102.19380188 C-36.9375 105.25 -36.9375 105.25 -38.27702332 107.15519714 C-40.88447236 108.87436772 -42.90327477 108.62927815 -45.9375 108.25 C-47.97248008 106.7095456 -48.82769278 105.82332191 -49.31223011 103.29347134 C-49.31206237 102.54665128 -49.31189463 101.79983122 -49.3117218 101.03038025 C-49.31873611 100.17090286 -49.32575043 99.31142548 -49.33297729 98.42590332 C-49.32533356 97.48605591 -49.31768982 96.5462085 -49.30981445 95.57788086 C-49.31346512 94.58579117 -49.31711578 93.59370148 -49.32087708 92.57154846 C-49.3289962 89.28580717 -49.31536185 86.00055689 -49.30078125 82.71484375 C-49.30026285 80.4370575 -49.30077977 78.15927079 -49.30229187 75.88148499 C-49.30220209 71.10573659 -49.29175954 66.33015679 -49.27368164 61.55444336 C-49.25098153 55.42164763 -49.25045208 49.28909812 -49.25719929 43.15627193 C-49.2605346 38.45266009 -49.25391764 33.74910476 -49.24407005 29.04550362 C-49.24021118 26.78358824 -49.23907267 24.52166658 -49.2406559 22.25974846 C-49.24102521 19.1039511 -49.22844439 15.94847403 -49.2121582 12.79272461 C-49.21463562 11.85085297 -49.21711304 10.90898132 -49.21966553 9.93856812 C-49.21258072 9.08191055 -49.20549591 8.22525299 -49.19819641 7.34263611 C-49.19511711 6.22297156 -49.19511711 6.22297156 -49.19197559 5.08068752 C-48.9375 3.25 -48.9375 3.25 -46.9375 1.25 C-41.35580065 0.51797386 -41.35580065 0.51797386 -38.9375 1.25 C-33.17848882 6.50863808 -30.81611815 13.87683143 -27.875 20.9375 C-27.02401161 22.94834763 -26.16933704 24.95760271 -25.31445312 26.96679688 C-24.730279 28.34032485 -24.1472793 29.71435289 -23.56542969 31.08886719 C-20.09816384 39.26790999 -16.45377483 47.3666501 -12.80834961 55.4675293 C-12.34307861 56.5069165 -11.87780762 57.54630371 -11.3984375 58.6171875 C-10.99415527 59.51550293 -10.58987305 60.41381836 -10.17333984 61.33935547 C-8.64538982 64.93797659 -7.29100748 68.58222546 -5.9375 72.25 C-5.92941315 71.37747589 -5.92132629 70.50495178 -5.91299438 69.60598755 C-5.83514713 61.39487317 -5.74788671 53.18392496 -5.64997292 44.97302437 C-5.59996508 40.75141835 -5.55363567 36.52983791 -5.515625 32.30810547 C-5.47882855 28.23610461 -5.43248446 24.16431542 -5.37943649 20.09249496 C-5.36086242 18.53675921 -5.34576565 16.98097803 -5.33415604 15.42517471 C-5.31734468 13.2508386 -5.2883234 11.07699047 -5.25634766 8.90283203 C-5.24302399 7.66373077 -5.22970032 6.42462952 -5.2159729 5.14797974 C-4.82970771 1.12823961 -4.02258725 0.34234785 0 0 Z " fill="#1A2D4F" transform="translate(377.9375,516.75)"/>
<path d="M0 0 C0.95101089 -0.00938095 1.90202179 -0.0187619 2.8818512 -0.02842712 C4.41167885 -0.01157616 4.41167885 -0.01157616 5.97241211 0.00561523 C7.02504745 0.00416 8.0776828 0.00270477 9.16221619 0.00120544 C11.38551606 0.00286428 13.60882743 0.01442371 15.83203125 0.03515625 C19.24064718 0.06413156 22.64771019 0.05576021 26.05639648 0.04272461 C28.21590927 0.04896132 30.37541714 0.05735173 32.53491211 0.06811523 C34.06777611 0.06371178 34.06777611 0.06371178 35.63160706 0.05921936 C36.57946579 0.07190353 37.52732452 0.08458771 38.50390625 0.09765625 C39.33789444 0.10305923 40.17188263 0.10846222 41.03114319 0.11402893 C43.68514038 0.59123116 44.57358417 1.37509579 46.18725586 3.50170898 C46.75273531 6.65223737 46.54095619 7.98290106 44.73120117 10.63745117 C40.94888908 13.40921078 37.61803749 13.0028065 33.04663086 12.89233398 C32.16444885 12.88667419 31.28226685 12.8810144 30.37335205 12.87518311 C27.56076373 12.85282489 24.74945791 12.80263031 21.93725586 12.75170898 C20.02842012 12.73164323 18.11956437 12.71339259 16.21069336 12.69702148 C11.53572141 12.65296199 6.86170594 12.58393882 2.18725586 12.50170898 C2.51725586 13.16170898 2.84725586 13.82170898 3.18725586 14.50170898 C3.27284704 16.6799586 3.29438998 18.86086153 3.28491211 21.04077148 C3.28168945 22.34272461 3.2784668 23.64467773 3.27514648 24.98608398 C3.26679052 26.36629297 3.25832556 27.74650131 3.24975586 29.12670898 C3.24474087 30.51472824 3.24017796 31.90274921 3.23608398 33.29077148 C3.22426562 36.6944603 3.2077902 40.09806337 3.18725586 43.50170898 C3.97898193 43.48076172 4.77070801 43.45981445 5.58642578 43.43823242 C9.18240603 43.35495432 12.77818322 43.30301007 16.37475586 43.25170898 C17.62063477 43.21819336 18.86651367 43.18467773 20.15014648 43.15014648 C21.35219727 43.13725586 22.55424805 43.12436523 23.79272461 43.11108398 C24.89769287 43.09013672 26.00266113 43.06918945 27.14111328 43.04760742 C30.84253973 43.59939497 32.49660619 44.97087821 35.18725586 47.50170898 C34.70028616 52.98011808 34.70028616 52.98011808 32.53393555 55.18261719 C29.48473338 56.8966038 27.37747527 56.84402341 23.89038086 56.79467773 C22.26084473 56.78343872 22.26084473 56.78343872 20.59838867 56.77197266 C19.22521484 56.74466064 17.85204102 56.71734863 16.43725586 56.68920898 C12.06475586 56.62733398 7.69225586 56.56545898 3.18725586 56.50170898 C3.18725586 69.04170898 3.18725586 81.58170898 3.18725586 94.50170898 C6.53366211 94.4669043 9.88006836 94.43209961 13.32788086 94.39624023 C16.56794379 94.37284586 19.80799733 94.35462855 23.0480957 94.33691406 C25.30041717 94.32182503 27.55270925 94.30135143 29.80493164 94.27539062 C33.04182182 94.23901306 36.27832361 94.22198368 39.51538086 94.20874023 C41.02651459 94.18551445 41.02651459 94.18551445 42.56817627 94.16181946 C43.50884949 94.16159286 44.44952271 94.16136627 45.41870117 94.16113281 C46.65780243 94.15114006 46.65780243 94.15114006 47.92193604 94.14094543 C50.7742802 94.59519556 52.13312958 95.48995354 54.18725586 97.50170898 C54.68725586 101.00170898 54.68725586 101.00170898 54.18725586 104.50170898 C51.19454964 107.49833024 48.8980817 107.88230875 44.74780273 107.90576172 C43.11591003 107.92478798 43.11591003 107.92478798 41.4510498 107.94419861 C39.69625305 107.93979515 39.69625305 107.93979515 37.90600586 107.93530273 C36.70036987 107.94054459 35.49473389 107.94578644 34.25256348 107.95118713 C31.70394664 107.9576096 29.15530016 107.95626748 26.60668945 107.94775391 C22.70202019 107.93924117 18.79881192 107.96800975 14.89428711 107.99975586 C12.41902713 108.00136783 9.94376456 108.00079043 7.46850586 107.99780273 C6.29864136 108.00903671 5.12877686 108.02027069 3.92346191 108.03184509 C2.83553345 108.02246414 1.74760498 108.01308319 0.62670898 108.00341797 C-0.32941284 108.0032518 -1.28553467 108.00308563 -2.27062988 108.00291443 C-4.81274414 107.50170898 -4.81274414 107.50170898 -7.12036133 106.0627594 C-9.69187977 102.17132992 -9.37120679 98.59318289 -9.33032227 94.02319336 C-9.33733154 93.06343094 -9.34434082 92.10366852 -9.3515625 91.11482239 C-9.36917173 87.94140719 -9.35750903 84.7688833 -9.34399414 81.59545898 C-9.3466882 79.39115223 -9.35056991 77.18684663 -9.35559082 74.98254395 C-9.36148985 70.36235237 -9.35290961 65.74247009 -9.33422852 61.12231445 C-9.31143905 55.19695162 -9.32455992 49.27231347 -9.34851837 43.34697723 C-9.36296521 38.79509002 -9.35837541 34.24337491 -9.3480072 29.69148254 C-9.34533685 27.50657567 -9.34862047 25.32165322 -9.35792542 23.13676453 C-9.36807238 20.08416287 -9.3526152 17.03273847 -9.33032227 13.98022461 C-9.33841919 13.07516678 -9.34651611 12.17010895 -9.3548584 11.23762512 C-9.27283695 5.18220879 -9.27283695 5.18220879 -7.08119202 1.94065857 C-4.47018391 0.28441199 -3.07337324 0.00061177 0 0 Z " fill="#1E3053" transform="translate(467.812744140625,517.498291015625)"/>
<path d="M0 0 C19 0 19 0 27 5 C31.43035009 9.78011458 33.24038964 13.40879237 33.30639648 19.92675781 C33.32238388 21.12190002 33.33837128 22.31704224 33.35484314 23.54840088 C33.36020584 24.83695984 33.36556854 26.1255188 33.37109375 27.453125 C33.38006795 28.79587907 33.38918994 30.13863216 33.39845276 31.48138428 C33.41492793 34.29571964 33.4226397 37.10993628 33.42553711 39.92431641 C33.43090885 43.51334803 33.46854237 47.10124763 33.51428127 50.68996048 C33.54417734 53.46455855 33.5512634 56.23888867 33.55226326 59.01363373 C33.55846362 60.97447197 33.58787507 62.93519303 33.61778259 64.89581299 C33.57933611 72.53580165 33.05996312 77.13219263 28 83 C20 88 20 88 0 88 C0 58.96 0 29.92 0 0 Z " fill="#C1D3E8" transform="translate(275,145)"/>
<path d="M0 0 C2.21646572 0.05001029 4.43072228 0.06152358 6.64770508 0.06713867 C17.44677991 0.17480726 17.44677991 0.17480726 19.7590332 2.48706055 C20.1340332 5.92456055 20.1340332 5.92456055 19.7590332 9.48706055 C17.49123793 11.85237714 16.09566303 12.44466618 12.82983398 12.85595703 C11.71592285 12.85668213 10.60201172 12.85740723 9.4543457 12.8581543 C8.23102539 12.87555664 7.00770508 12.89295898 5.74731445 12.91088867 C3.17961692 12.91997557 0.61190274 12.92520761 -1.95581055 12.92651367 C-10.94135315 12.91109249 -10.94135315 12.91109249 -18.2409668 17.48706055 C-21.76547555 22.42137279 -22.21765332 27.61789803 -21.2409668 33.48706055 C-19.26208702 38.14371019 -16.62677623 41.86655902 -12.2409668 44.48706055 C-9.50220989 44.91591675 -9.50220989 44.91591675 -6.5534668 44.92456055 C-0.66021623 45.29020018 3.64463511 46.58857188 8.7590332 49.48706055 C9.37391602 49.81319336 9.98879883 50.13932617 10.62231445 50.4753418 C17.96074686 54.9499957 22.53694933 63.3780341 24.7590332 71.48706055 C25.92232929 81.26686369 23.61687703 89.1796363 19.0090332 97.73706055 C13.38674387 104.60874751 7.45522773 109.24485035 -1.2409668 111.48706055 C-6.13474984 111.97338763 -10.96044582 112.06475788 -15.87475586 112.00854492 C-18.13330957 111.9868943 -20.38875326 112.0085376 -22.6472168 112.03393555 C-24.09253627 112.03129551 -25.53785382 112.02617725 -26.9831543 112.01831055 C-28.2810791 112.01379883 -29.57900391 112.00928711 -30.91625977 112.00463867 C-34.75615751 111.40685756 -35.95668865 110.57434433 -38.2409668 107.48706055 C-38.719651 104.68333881 -38.74446718 103.2518945 -37.16992188 100.86010742 C-34.27880445 98.80218508 -31.36018129 99.06578189 -27.94018555 99.08081055 C-27.22619095 99.06997437 -26.51219635 99.05913818 -25.77656555 99.04797363 C-23.49377421 99.01371362 -21.21148132 98.99812796 -18.9284668 98.98706055 C-15.93189763 98.97243228 -12.936431 98.93860202 -9.94018555 98.89331055 C-9.25872971 98.89633179 -8.57727386 98.89935303 -7.87516785 98.90246582 C-1.91798217 98.80987687 1.92913548 97.01906794 6.4465332 93.23706055 C11.50589742 87.22051931 12.32296286 82.08450278 12.1105957 74.36206055 C11.44358803 68.90742 9.22375657 65.81228645 5.1340332 62.11206055 C1.70743987 59.76754932 -0.1966332 59.37672535 -4.3034668 59.17456055 C-12.5027065 58.47789312 -20.20738328 55.18962452 -26.2409668 49.48706055 C-32.99127399 40.838789 -34.00577995 32.24378743 -33.2409668 21.48706055 C-31.93114814 14.15207607 -27.26962012 8.70468622 -21.56982422 4.15234375 C-14.81550731 -0.39598792 -7.8284549 -0.18033861 0 0 Z " fill="#1D2E50" transform="translate(490.240966796875,133.512939453125)"/>
<path d="M0 0 C2.05198938 0.02935995 4.10144819 0.02049008 6.15356445 0.00756836 C16.05293246 0.07143525 16.05293246 0.07143525 18.47216797 1.84130859 C20.11387481 4.22180139 20.07581872 5.63871748 19.59301758 8.46655273 C17.36151329 11.42947008 16.21179129 12.37650494 12.49609375 12.91723633 C11.3047583 12.89999512 10.11342285 12.88275391 8.88598633 12.86499023 C7.57694336 12.87014648 6.26790039 12.87530273 4.91918945 12.88061523 C2.85206702 12.86592179 0.78562511 12.84163983 -1.28125 12.80639648 C-10.67531944 12.39576489 -10.67531944 12.39576489 -18.79370117 16.38061523 C-22.51086938 20.29801682 -22.80453015 23.49856454 -22.75854492 28.78686523 C-22.19922681 33.05011218 -20.32250963 36.33619721 -17.40698242 39.46655273 C-13.85040049 41.92248344 -9.89894886 41.91863681 -5.71948242 42.27905273 C4.75107922 43.42765733 11.16399567 46.91278693 17.92895508 55.17358398 C23.70047215 63.12635516 23.97840058 72.93027555 22.59301758 82.46655273 C19.48257563 92.41555501 13.63169435 99.54217899 4.46801758 104.34155273 C-2.95329462 107.92180239 -10.26630432 107.71474166 -18.38183594 107.76171875 C-19.77549348 107.77329046 -21.16910494 107.79382372 -22.5625 107.82324219 C-24.58456142 107.86586956 -26.60716885 107.87947721 -28.62963867 107.89233398 C-30.43573608 107.91420776 -30.43573608 107.91420776 -32.27832031 107.93652344 C-36.00688048 107.37643929 -37.16312114 106.43894483 -39.40698242 103.46655273 C-39.90698242 100.96655273 -39.90698242 100.96655273 -39.40698242 98.46655273 C-37.8359375 96.33959961 -37.8359375 96.33959961 -35.40698242 94.46655273 C-32.03466797 93.98413086 -32.03466797 93.98413086 -28.04370117 93.99780273 C-26.97838921 93.98722839 -26.97838921 93.98722839 -25.89155579 93.97644043 C-22.86566187 93.94705415 -19.84041772 93.96351755 -16.81445312 93.97583008 C-14.59881922 93.97822665 -12.38420756 93.95720545 -10.16870117 93.93530273 C-9.49554367 93.94662231 -8.82238617 93.95794189 -8.12882996 93.96960449 C-2.73444688 93.91286525 0.24141996 92.42836958 4.59301758 89.46655273 C8.92375472 84.08239305 11.11990062 78.5997443 10.90551758 71.61889648 C10.07748813 65.91584367 7.98788561 61.60522051 3.53051758 57.96655273 C-0.52259333 55.89687908 -3.48451411 55.38028039 -7.96948242 55.21655273 C-16.37107581 54.53671366 -22.62107295 51.77930324 -28.34448242 45.52905273 C-33.00032433 39.95805763 -34.95354105 34.85210932 -34.84448242 27.59155273 C-34.83203491 26.52819702 -34.83203491 26.52819702 -34.81933594 25.44335938 C-34.63897821 19.8663905 -33.86730505 15.85099713 -30.40698242 11.46655273 C-29.92100586 10.84393555 -29.4350293 10.22131836 -28.93432617 9.57983398 C-21.09237487 0.73678251 -11.29895588 -0.17699639 0 0 Z " fill="#1E2F51" transform="translate(277.406982421875,517.533447265625)"/>
<path d="M0 0 C2.87647497 2.87647497 2.27021549 4.96193215 2.30859375 8.984375 C2.33376857 10.408858 2.35916636 11.83333707 2.38476562 13.2578125 C2.41342144 15.50031379 2.437439 17.74274634 2.45629883 19.98535156 C2.47808088 22.15206696 2.51754331 24.3179511 2.55859375 26.484375 C2.57204834 27.78084961 2.58550293 29.07732422 2.59936523 30.41308594 C3.18426492 35.64973809 5.06555744 38.89783699 8.4375 42.875 C12.94648924 46.37822472 18.61321106 45.67334862 24 45 C28.77951721 43.37837809 31.18933474 41.16394853 34 37 C35.16029479 33.51911563 35.14308659 30.73785161 35.17578125 27.06640625 C35.1989745 25.68162534 35.22309164 24.29685965 35.24804688 22.91210938 C35.28317868 20.73516561 35.31252287 18.55878481 35.32592773 16.3815918 C35.34141994 14.27584346 35.38162189 12.1717232 35.42578125 10.06640625 C35.44036377 8.80771729 35.45494629 7.54902832 35.4699707 6.25219727 C36.08670687 2.46797689 36.96301237 1.26700778 40 -1 C42.80609515 -1.47908942 44.23617987 -1.50474462 46.62744141 0.07543945 C48.74100021 3.0390083 48.38918161 5.63102947 48.3984375 9.23046875 C48.40130768 9.93972 48.40417786 10.64897125 48.40713501 11.37971497 C48.40917575 12.88181353 48.40364507 14.38393866 48.39111328 15.88598633 C48.37517683 18.16224305 48.39089782 20.43669202 48.41015625 22.71289062 C48.42704577 33.81320098 47.14325011 42.77192437 39 51 C34.20104153 54.54538438 29.87417311 56.92468826 24 58 C24.00666183 58.61974197 24.01332367 59.23948395 24.02018738 59.87800598 C24.08646509 66.3177879 24.13176909 72.75747322 24.16479492 79.19750977 C24.17989816 81.60217218 24.20038208 84.00680698 24.22631836 86.41137695 C24.26263351 89.86416431 24.279711 93.31658804 24.29296875 96.76953125 C24.30845261 97.84773636 24.32393646 98.92594147 24.33988953 100.03681946 C24.34011612 101.03763046 24.34034271 102.03844147 24.34057617 103.06958008 C24.34723801 103.95116287 24.35389984 104.83274567 24.36076355 105.74104309 C24 108 24 108 22.70137024 109.78862 C19.90189726 111.78185199 17.31094389 111.3009949 14 111 C12 109 12 109 11.75949097 106.82333374 C11.7661528 105.47098129 11.7661528 105.47098129 11.77294922 104.09130859 C11.77310028 103.07040131 11.77325134 102.04949402 11.77340698 100.99765015 C11.78372955 99.89240997 11.79405212 98.7871698 11.8046875 97.6484375 C11.8075174 96.5192691 11.81034729 95.39010071 11.81326294 94.22671509 C11.82448538 90.60937029 11.84959378 86.99227034 11.875 83.375 C11.88502713 80.9270869 11.89415344 78.47916993 11.90234375 76.03125 C11.92443143 70.02074936 11.95792926 64.01039217 12 58 C11.05455322 57.69674805 10.10910645 57.39349609 9.13500977 57.08105469 C2.36388443 54.74614751 -2.94105217 49.79849689 -7 44 C-9.59155158 38.64063068 -10.45019437 33.79313861 -10.3984375 27.88671875 C-10.40130768 27.15048782 -10.40417786 26.4142569 -10.40713501 25.65571594 C-10.40915979 24.11544007 -10.40374206 22.57513754 -10.39111328 21.03491211 C-10.37491895 18.67569202 -10.39107347 16.31815479 -10.41015625 13.95898438 C-10.40817579 12.4557254 -10.4043362 10.95246746 -10.3984375 9.44921875 C-10.40451019 8.74609055 -10.41058289 8.04296234 -10.4168396 7.31852722 C-10.37543564 4.4521962 -10.29707007 2.45106308 -8.69775391 0.02270508 C-5.7663638 -1.74312655 -3.18498005 -0.75281347 0 0 Z " fill="#1D2E51" transform="translate(401,134)"/>
<path d="M0 0 C2.26949163 -0.00974554 4.53809235 -0.04079905 6.80737305 -0.07226562 C8.24551871 -0.07879214 9.68367084 -0.08404399 11.12182617 -0.08789062 C12.4328833 -0.09723633 13.74394043 -0.10658203 15.09472656 -0.11621094 C16.12331787 0.00141602 17.15190918 0.11904297 18.21166992 0.24023438 C20.21166992 3.24023438 20.21166992 3.24023438 20.02416992 6.80273438 C19.21166992 10.24023438 19.21166992 10.24023438 16.21166992 12.24023438 C13.30419922 12.49560547 13.30419922 12.49560547 9.78588867 12.51367188 C8.51422852 12.53429687 7.24256836 12.55492187 5.93237305 12.57617188 C3.25512563 12.60612527 0.57861035 12.62039533 -2.09887695 12.63085938 C-3.3744043 12.6540625 -4.64993164 12.67726563 -5.96411133 12.70117188 C-7.1285376 12.70938965 -8.29296387 12.71760742 -9.49267578 12.72607422 C-14.63014992 13.52757955 -17.72002374 16.02756232 -21.10083008 19.86523438 C-23.6257348 23.41880398 -23.9196103 25.2758672 -23.94946289 29.60449219 C-23.95907043 30.72615784 -23.96867798 31.84782349 -23.97857666 33.003479 C-23.98495148 34.82996979 -23.98495148 34.82996979 -23.99145508 36.69335938 C-23.99715515 37.941474 -24.00285522 39.18958862 -24.00872803 40.4755249 C-24.01818986 43.12190396 -24.02508027 45.76816931 -24.02856445 48.41455078 C-24.03403595 51.79502428 -24.05803411 55.17509229 -24.08653641 58.555439 C-24.10972193 61.78888153 -24.11161706 65.02234536 -24.11645508 68.25585938 C-24.12880188 69.46542297 -24.14114868 70.67498657 -24.15386963 71.92120361 C-24.13622711 78.58924733 -24.03097386 83.76656253 -19.25317383 88.88476562 C-14.41145736 92.58725469 -12.25648782 93.36363028 -6.17114258 93.45117188 C-4.82868252 93.47924279 -3.48623476 93.50790728 -2.14379883 93.53710938 C-0.02840551 93.57834703 2.08675867 93.61523548 4.20239258 93.64160156 C6.24502954 93.66926277 8.28662404 93.71513169 10.32885742 93.76367188 C11.5520166 93.78349121 12.77517578 93.80331055 14.03540039 93.82373047 C17.41887549 94.26740522 18.85336499 94.81018302 21.21166992 97.24023438 C21.77416992 100.17773438 21.77416992 100.17773438 21.21166992 103.24023438 C17.62147636 106.83164674 15.19856783 107.74969153 10.16870117 107.77148438 C8.43330078 107.77921875 8.43330078 107.77921875 6.6628418 107.78710938 C5.46208008 107.77164063 4.26131836 107.75617188 3.02416992 107.74023438 C1.84274414 107.75570312 0.66131836 107.77117187 -0.5559082 107.78710938 C-12.42165172 107.73451882 -20.08569367 104.73864066 -28.65551758 96.54492188 C-36.25390756 88.33420742 -37.10362443 79.54511694 -37.12426758 68.79101562 C-37.13092438 67.5826152 -37.13758118 66.37421478 -37.1444397 65.12919617 C-37.15455076 62.57483437 -37.1592572 60.02044624 -37.15893555 57.46606445 C-37.16329531 53.58369664 -37.1995971 49.70247837 -37.23754883 45.8203125 C-37.24342015 43.33138407 -37.24738743 40.84245027 -37.24926758 38.35351562 C-37.27082413 36.62951286 -37.27082413 36.62951286 -37.29281616 34.87068176 C-37.23911616 25.26246765 -35.42632607 16.01377871 -28.63598633 8.80664062 C-19.52028989 1.07853434 -11.54192651 0.03009302 0 0 Z " fill="#1E2F51" transform="translate(429.788330078125,517.759765625)"/>
<path d="M0 0 C3.516593 0.68616449 4.44630922 1.58942015 6.5625 4.5 C7.16294051 7.72179726 7.09836548 10.90882787 7.06420898 14.17797852 C7.06961197 15.15885437 7.07501495 16.13973022 7.08058167 17.15032959 C7.09309211 20.39349511 7.07656324 23.63577702 7.05859375 26.87890625 C7.05874867 29.13044786 7.0602365 31.38198975 7.06300354 33.63352966 C7.06438853 38.35207915 7.05181136 43.07032504 7.02905273 47.78881836 C7.00065181 53.84422119 7.00340864 59.89912006 7.01614285 65.95456028 C7.02308924 70.60333072 7.01532287 75.25198416 7.00288582 79.90073967 C6.99836237 82.13391611 6.99804228 84.36710507 7.00195122 86.60028267 C7.00485362 89.71759025 6.98840315 92.83419688 6.96655273 95.95141602 C6.97105438 96.8787706 6.97555603 97.80612518 6.98019409 98.76158142 C6.97028946 99.60975433 6.96038483 100.45792725 6.95018005 101.33180237 C6.94775016 102.06865045 6.94532026 102.80549852 6.94281673 103.56467533 C6.44929668 106.0760598 5.58229637 106.96636347 3.5625 108.5 C-1.58918985 109.14396123 -1.58918985 109.14396123 -4.10119057 107.23707485 C-5.74869449 105.09547683 -5.81433655 104.01214511 -5.81845093 101.33180237 C-5.8269104 100.48362946 -5.83536987 99.63545654 -5.84408569 98.76158142 C-5.838013 97.83422684 -5.83194031 96.90687225 -5.82568359 95.95141602 C-5.83094055 94.97229248 -5.83619751 93.99316895 -5.84161377 92.984375 C-5.85484093 89.74072417 -5.84606523 86.49756227 -5.8359375 83.25390625 C-5.83795761 81.00333054 -5.84086852 78.75275547 -5.84463501 76.50218201 C-5.84906219 71.78190895 -5.84261514 67.06180604 -5.82861328 62.34155273 C-5.81153114 56.28735827 -5.82135417 50.23356305 -5.83933067 44.17938328 C-5.85016616 39.53058357 -5.84672304 34.88187865 -5.8389473 30.2330761 C-5.83694414 28.00072114 -5.8394086 25.7683576 -5.84638596 23.53601265 C-5.8539953 20.41643579 -5.84240256 17.29750705 -5.82568359 14.17797852 C-5.83175629 13.25264816 -5.83782898 12.32731781 -5.84408569 11.37394714 C-5.78218142 5.14659874 -5.78218142 5.14659874 -4.06558228 1.92637634 C-2.4375 0.5 -2.4375 0.5 0 0 Z " fill="#1C2F4F" transform="translate(313.4375,516.5)"/>
<path d="M0 0 C10.56 0 21.12 0 32 0 C32 11.55 32 23.1 32 35 C18.73061483 36.89562645 12.24772994 34.94026082 0 30 C0 20.1 0 10.2 0 0 Z " fill="#C3D5E9" transform="translate(340,190)"/>
<path d="M0 0 C4.94616497 1.93545586 8.63532278 6.27064555 11 11 C11.08426094 12.6674606 11.10725143 14.33825187 11.09765625 16.0078125 C11.09515869 16.8961377 11.09266113 17.78446289 11.09008789 18.69970703 C11.08098389 19.83005371 11.07187988 20.96040039 11.0625 22.125 C11.041875 25.71375 11.02125 29.3025 11 33 C0.44 33 -10.12 33 -21 33 C-21.0825 29.49375 -21.165 25.9875 -21.25 22.375 C-21.28641602 21.28106934 -21.32283203 20.18713867 -21.36035156 19.06005859 C-21.44788838 11.36387774 -19.56263232 7.87514845 -14.4375 2.125 C-10.1994711 -1.22650245 -5.11108609 -0.70443759 0 0 Z " fill="#BFD2E7" transform="translate(361,145)"/>
<path d="M0 0 C6.21363267 0.62136327 12.11291518 1.27903867 18.1875 2.5 C23.11228139 3.47243973 28.02553122 4.32899513 33 5 C33.51513729 10.76953768 32.87029355 14.10281445 29.875 19.04296875 C25.53075419 23.57727532 21.21744476 26.26900818 14.84375 26.48828125 C13.06175797 26.46018841 11.28025954 26.39593121 9.5 26.3125 C6.365 26.209375 3.23 26.10625 0 26 C0 17.42 0 8.84 0 0 Z " fill="#F48462" transform="translate(275,207)"/>
<path d="M0 0 C1.30195313 0.00322266 2.60390625 0.00644531 3.9453125 0.00976562 C5.32552149 0.01812159 6.70572982 0.02658654 8.0859375 0.03515625 C9.47395676 0.04017124 10.86197772 0.04473415 12.25 0.04882812 C15.65368882 0.06064649 19.05729189 0.07712191 22.4609375 0.09765625 C15.71740799 6.87410836 8.57773203 13.20953249 1.33984375 19.453125 C0.05529877 20.57743568 -1.20709123 21.72743385 -2.44921875 22.8984375 C-3.05636719 23.45917969 -3.66351563 24.01992188 -4.2890625 24.59765625 C-4.82015625 25.10296875 -5.35125 25.60828125 -5.8984375 26.12890625 C-7.5390625 27.09765625 -7.5390625 27.09765625 -9.6015625 26.9375 C-12.32512544 25.75692332 -13.44170223 23.84092658 -14.76171875 21.25390625 C-16.24975146 17.12629792 -16.55860373 13.3757312 -15.5390625 9.09765625 C-11.28568767 2.35854288 -7.89489988 -0.03432565 0 0 Z " fill="#C3D3E8" transform="translate(269.5390625,529.90234375)"/>
<path d="M0 0 C0.66 0.33 1.32 0.66 2 1 C-10.48519362 14.81776765 -10.48519362 14.81776765 -17 20 C-17.66 19.67 -18.32 19.34 -19 19 C-12.73 12.73 -6.46 6.46 0 0 Z " fill="#3A4969" transform="translate(272,454)"/>
<path d="M0 0 C0.66 0.33 1.32 0.66 2 1 C-2.32893185 6.18419194 -6.76564995 10.72706118 -12 15 C-12 10.09687565 -8.29800369 7.38658643 -5 4 C-3.37458956 2.61667196 -1.72614587 1.25537882 0 0 Z " fill="#43516F" transform="translate(176,647)"/>
<path d="M0 0 C0.66 0.33 1.32 0.66 2 1 C1.52949219 1.50789063 1.05898438 2.01578125 0.57421875 2.5390625 C-3.01734405 6.50985864 -5.9022425 10.06409999 -8 15 C-8.66 15 -9.32 15 -10 15 C-8.55693119 8.58636086 -4.52173041 4.52173041 0 0 Z " fill="#C4CEE0" transform="translate(402,346)"/>
<path d="M0 0 C1.32 0.33 2.64 0.66 4 1 C1.69 3.31 -0.62 5.62 -3 8 C-3.99 7.67 -4.98 7.34 -6 7 C-4.02 4.69 -2.04 2.38 0 0 Z " fill="#435370" transform="translate(171,36)"/>
<path d="M0 0 C0.66 0.66 1.32 1.32 2 2 C0.88266271 3.50571657 -0.24410035 5.00444292 -1.375 6.5 C-2.00148438 7.3353125 -2.62796875 8.170625 -3.2734375 9.03125 C-3.84320313 9.6809375 -4.41296875 10.330625 -5 11 C-5.66 11 -6.32 11 -7 11 C-5.5140084 6.40693504 -3.14985318 3.56430755 0 0 Z " fill="#283358" transform="translate(403,525)"/>
<path d="M0 0 C0 3 0 3 -1.3125 4.60546875 C-1.869375 5.12753906 -2.42625 5.64960938 -3 6.1875 C-3.556875 6.71730469 -4.11375 7.24710938 -4.6875 7.79296875 C-5.120625 8.19128906 -5.55375 8.58960938 -6 9 C-6.66 8.67 -7.32 8.34 -8 8 C-7.04578192 6.85073734 -6.08647955 5.70569459 -5.125 4.5625 C-4.59132813 3.92441406 -4.05765625 3.28632813 -3.5078125 2.62890625 C-2 1 -2 1 0 0 Z " fill="#213256" transform="translate(341,137)"/>
<path d="M0 0 C-1.39332574 3.36720387 -2.9789286 4.9859524 -6 7 C-6 4 -6 4 -4.125 1.8125 C-2 0 -2 0 0 0 Z " fill="#233457" transform="translate(469,139)"/>
</svg>
